<mxfile host="app.diagrams.net" modified="2023-12-08T11:56:08.723Z" agent="Mozilla/5.0 (Macintosh; Intel Mac OS X 10_15_7) AppleWebKit/537.36 (KHTML, like Gecko) Chrome/119.0.0.0 Safari/537.36" etag="3FGE-N6d9cvynR0rb4Sq" version="22.1.7" type="github">
  <diagram name="Page-1" id="c7558073-3199-34d8-9f00-42111426c3f3">
    <mxGraphModel dx="1434" dy="765" grid="1" gridSize="10" guides="1" tooltips="1" connect="1" arrows="1" fold="1" page="1" pageScale="1" pageWidth="826" pageHeight="1169" background="none" math="0" shadow="0">
      <root>
        <mxCell id="0" />
        <mxCell id="1" parent="0" />
        <mxCell id="cLchtStqPjOqHIyY1JT2-98" value="会话" style="rounded=1;whiteSpace=wrap;html=1;" vertex="1" parent="1">
          <mxGeometry x="260" y="240" width="120" height="60" as="geometry" />
        </mxCell>
        <mxCell id="cLchtStqPjOqHIyY1JT2-99" value="消息" style="rounded=1;whiteSpace=wrap;html=1;" vertex="1" parent="1">
          <mxGeometry x="260" y="420" width="120" height="60" as="geometry" />
        </mxCell>
        <mxCell id="cLchtStqPjOqHIyY1JT2-106" style="edgeStyle=orthogonalEdgeStyle;rounded=0;orthogonalLoop=1;jettySize=auto;html=1;exitX=0.5;exitY=0;exitDx=0;exitDy=0;entryX=0.5;entryY=1;entryDx=0;entryDy=0;" edge="1" parent="1" source="cLchtStqPjOqHIyY1JT2-100" target="cLchtStqPjOqHIyY1JT2-101">
          <mxGeometry relative="1" as="geometry" />
        </mxCell>
        <mxCell id="cLchtStqPjOqHIyY1JT2-100" value="Socket" style="rounded=1;whiteSpace=wrap;html=1;" vertex="1" parent="1">
          <mxGeometry x="260" y="750" width="120" height="60" as="geometry" />
        </mxCell>
        <mxCell id="cLchtStqPjOqHIyY1JT2-108" style="edgeStyle=orthogonalEdgeStyle;rounded=0;orthogonalLoop=1;jettySize=auto;html=1;exitX=0;exitY=0.5;exitDx=0;exitDy=0;" edge="1" parent="1" source="cLchtStqPjOqHIyY1JT2-101" target="cLchtStqPjOqHIyY1JT2-107">
          <mxGeometry relative="1" as="geometry" />
        </mxCell>
        <mxCell id="cLchtStqPjOqHIyY1JT2-101" value="SessionManager" style="rounded=1;whiteSpace=wrap;html=1;" vertex="1" parent="1">
          <mxGeometry x="260" y="585" width="120" height="60" as="geometry" />
        </mxCell>
        <mxCell id="cLchtStqPjOqHIyY1JT2-103" style="edgeStyle=orthogonalEdgeStyle;rounded=0;orthogonalLoop=1;jettySize=auto;html=1;exitX=1;exitY=0.3333333333333333;exitDx=0;exitDy=0;exitPerimeter=0;entryX=0;entryY=0.5;entryDx=0;entryDy=0;" edge="1" parent="1" source="cLchtStqPjOqHIyY1JT2-102" target="cLchtStqPjOqHIyY1JT2-100">
          <mxGeometry relative="1" as="geometry" />
        </mxCell>
        <mxCell id="cLchtStqPjOqHIyY1JT2-105" value="连接" style="edgeLabel;html=1;align=center;verticalAlign=middle;resizable=0;points=[];" vertex="1" connectable="0" parent="cLchtStqPjOqHIyY1JT2-103">
          <mxGeometry x="-0.04" relative="1" as="geometry">
            <mxPoint as="offset" />
          </mxGeometry>
        </mxCell>
        <mxCell id="cLchtStqPjOqHIyY1JT2-102" value="张三" style="shape=umlActor;verticalLabelPosition=bottom;verticalAlign=top;html=1;" vertex="1" parent="1">
          <mxGeometry x="80" y="760" width="30" height="60" as="geometry" />
        </mxCell>
        <mxCell id="cLchtStqPjOqHIyY1JT2-107" value="Session&lt;br&gt;张三" style="shape=parallelogram;perimeter=parallelogramPerimeter;whiteSpace=wrap;html=1;fixedSize=1;" vertex="1" parent="1">
          <mxGeometry x="70" y="585" width="120" height="60" as="geometry" />
        </mxCell>
      </root>
    </mxGraphModel>
  </diagram>
</mxfile>
